<?xml version="1.0" encoding="iso-8859-1"?>
<!-- Generator: Adobe Illustrator 16.0.0, SVG Export Plug-In . SVG Version: 6.00 Build 0)  -->
<!DOCTYPE svg PUBLIC "-//W3C//DTD SVG 1.1//EN" "http://www.w3.org/Graphics/SVG/1.1/DTD/svg11.dtd">
<svg version="1.1" id="Capa_1" xmlns="http://www.w3.org/2000/svg" xmlns:xlink="http://www.w3.org/1999/xlink" x="0px" y="0px"
	 width="100px" height="100px" viewBox="0 30 100 30" style="enable-background:new 0 0 99.255 99.254;"
	 xml:space="preserve">
<g>
	<g>
		<path fill="current" stroke="current" d="M21.569,50.122c-3.994,0.039-7.199,3.305-7.161,7.299c0.003,0.312,0.029,0.611,0.071,0.91
			c0.482,3.562,3.542,6.289,7.228,6.252c3.787-0.035,6.859-2.973,7.138-6.68c0.015-0.205,0.028-0.41,0.026-0.617
			C28.833,53.29,25.564,50.084,21.569,50.122z M20.971,52.874l0.019,2.08c-0.228,0.062-0.438,0.152-0.637,0.273l-1.486-1.459
			C19.468,53.301,20.183,52.989,20.971,52.874z M17.991,54.663l1.488,1.461c-0.111,0.199-0.2,0.412-0.255,0.637l-2.079,0.023
			C17.245,55.993,17.539,55.272,17.991,54.663z M17.148,58.034l2.095-0.02c0.062,0.223,0.15,0.432,0.268,0.625l-1.465,1.491
			C17.586,59.534,17.267,58.817,17.148,58.034z M18.949,61.002l1.457-1.485c0.193,0.108,0.407,0.192,0.63,0.248l0.019,2.086
			C20.272,61.75,19.555,61.448,18.949,61.002z M26.122,56.698l-2.08,0.02c-0.059-0.227-0.15-0.438-0.269-0.635l1.462-1.49
			C25.698,55.194,26.006,55.909,26.122,56.698z M22.222,52.862c0.791,0.102,1.512,0.4,2.12,0.854l-1.458,1.484
			c-0.198-0.115-0.413-0.203-0.643-0.262L22.222,52.862z M22.308,61.838l-0.02-2.086c0.223-0.059,0.432-0.145,0.625-0.262
			l1.483,1.459C23.8,61.409,23.089,61.724,22.308,61.838z M25.285,60.065l-1.495-1.467c0.11-0.195,0.205-0.404,0.263-0.632
			l2.076-0.02C26.027,58.733,25.739,59.461,25.285,60.065z"/>
		<path d="M79.957,50.122c-3.994,0.039-7.199,3.305-7.161,7.299c0.003,0.312,0.029,0.611,0.071,0.91
			c0.481,3.562,3.542,6.289,7.228,6.252c3.786-0.035,6.859-2.973,7.138-6.68c0.016-0.205,0.028-0.41,0.026-0.617
			C87.221,53.29,83.952,50.084,79.957,50.122z M79.357,52.874l0.02,2.08c-0.229,0.062-0.438,0.152-0.637,0.273l-1.486-1.459
			C77.854,53.301,78.568,52.989,79.357,52.874z M76.379,54.663l1.488,1.461c-0.112,0.199-0.2,0.412-0.256,0.637l-2.078,0.023
			C75.633,55.993,75.927,55.272,76.379,54.663z M75.536,58.034l2.095-0.02c0.062,0.223,0.149,0.432,0.268,0.625l-1.465,1.491
			C75.974,59.534,75.653,58.817,75.536,58.034z M77.337,61.002l1.457-1.485c0.192,0.108,0.407,0.192,0.629,0.248l0.02,2.086
			C78.66,61.75,77.941,61.448,77.337,61.002z M84.51,56.698l-2.08,0.02c-0.059-0.227-0.15-0.438-0.269-0.635l1.462-1.49
			C84.086,55.194,84.394,55.909,84.51,56.698z M80.608,52.862c0.79,0.102,1.513,0.4,2.12,0.854l-1.458,1.484
			c-0.197-0.115-0.413-0.203-0.643-0.262L80.608,52.862z M80.694,61.838l-0.02-2.086c0.223-0.059,0.432-0.145,0.625-0.262
			l1.483,1.459C82.188,61.409,81.477,61.724,80.694,61.838z M83.673,60.065l-1.495-1.467c0.11-0.195,0.205-0.404,0.263-0.632
			l2.076-0.02C84.415,58.733,84.127,59.461,83.673,60.065z"/>
		<path d="M99.122,42.375c-0.117-0.146-0.295-0.233-0.483-0.233h-6.388c-0.253,0-0.48,0.156-0.572,0.393l-0.407,1.045
			c0,0-18.024-6.571-22.044-7.969c-3.117-1.084-11.719-1.004-16.776-0.849c-2.492,0.077-4.985,0.59-7.301,1.516
			c-4.257,1.701-11.383,4.628-15.049,6.584c-8.715,0.184-16.877,2.165-18.686,3.039c-1.808,0.875-5.714,4.374-5.714,4.374
			l-4.724,2.489c-0.644,0.34-1.025,1.028-0.972,1.756l0.283,3.816c0.063,0.854,0.708,1.547,1.553,1.676l11.253,1.697l0.926-0.038
			c-0.539-0.945-0.912-2.003-1.065-3.135c-0.054-0.383-0.082-0.745-0.086-1.1c-0.046-4.835,3.85-8.807,8.686-8.854
			c4.876,0,8.809,3.897,8.854,8.688c0.002,0.251-0.012,0.498-0.029,0.746c-0.081,1.067-0.362,2.081-0.796,3.01l42.45-0.088
			c-0.339-0.749-0.577-1.555-0.691-2.401c-0.054-0.383-0.083-0.745-0.086-1.1c-0.046-4.835,3.85-8.807,8.686-8.854
			c4.875,0,8.81,3.897,8.854,8.688c0.002,0.251-0.012,0.498-0.03,0.746c-0.042,0.563-0.139,1.114-0.285,1.646l0.395-0.031
			l7.636-2.291c0.698-0.209,1.205-0.812,1.293-1.534l0.682-5.691c0.086-0.717-0.062-1.44-0.422-2.066l-1.281-2.23l1.979-1.503
			c0.114-0.087,0.194-0.21,0.229-0.35l0.25-1.064C99.28,42.715,99.237,42.522,99.122,42.375z M64.787,43.424l-19.354,0.569
			c0,0-0.003-2.387-2.864-2.684l4.563-2.703c1.649-0.978,3.512-1.476,5.429-1.461c3.491,0.027,9.276,0.092,12.691,0.238
			c0.606,0.025,1.158,0.363,1.458,0.892c0.3,0.529,0.306,1.176,0.015,1.71C65.77,41.743,64.787,43.424,64.787,43.424z"/>
	</g>
</g>
<g>
</g>
<g>
</g>
<g>
</g>
<g>
</g>
<g>
</g>
<g>
</g>
<g>
</g>
<g>
</g>
<g>
</g>
<g>
</g>
<g>
</g>
<g>
</g>
<g>
</g>
<g>
</g>
<g>
</g>
</svg>
