<?xml version="1.0" encoding="iso-8859-1"?>
<!-- Generator: Adobe Illustrator 16.0.0, SVG Export Plug-In . SVG Version: 6.00 Build 0)  -->
<!DOCTYPE svg PUBLIC "-//W3C//DTD SVG 1.1//EN" "http://www.w3.org/Graphics/SVG/1.1/DTD/svg11.dtd">
<svg version="1.1" id="Capa_1" xmlns="http://www.w3.org/2000/svg" xmlns:xlink="http://www.w3.org/1999/xlink" x="0px" y="0px"
	 width="10rem" height="10rem" viewBox="0 30 100 30" style="enable-background:new 0 0 98.752 98.752;"
	 xml:space="preserve">
<g>
	<g>
		<path fill="current" stroke="current" d="M76.353,60.377c0,0.38,0.031,0.752,0.079,1.119c0.551,4.389,4.289,7.785,8.826,7.785c4.662,0,8.48-3.584,8.867-8.145
			c0.021-0.252,0.038-0.504,0.038-0.761c0-4.919-3.985-8.905-8.905-8.905C80.341,51.473,76.353,55.459,76.353,60.377z
			 M90.785,59.621h-2.559c-0.071-0.279-0.182-0.541-0.323-0.783l1.817-1.817C90.281,57.766,90.653,58.651,90.785,59.621z
			 M89.718,63.762l-1.826-1.828c0.142-0.24,0.258-0.494,0.331-0.771h2.559C90.646,62.127,90.281,63.02,89.718,63.762z M86.03,63.339
			c0.274-0.071,0.534-0.176,0.772-0.315l1.811,1.812c-0.741,0.561-1.619,0.938-2.583,1.07V63.339z M86.03,54.852
			c0.972,0.135,1.856,0.51,2.602,1.078l-1.814,1.813c-0.244-0.144-0.506-0.255-0.787-0.328V54.852z M80.798,57.02l1.816,1.817
			c-0.142,0.242-0.252,0.504-0.321,0.783h-2.561C79.864,58.651,80.236,57.766,80.798,57.02z M84.488,57.416
			c-0.281,0.073-0.543,0.185-0.787,0.328l-1.813-1.813c0.746-0.566,1.631-0.941,2.602-1.076L84.488,57.416L84.488,57.416z
			 M81.904,64.836l1.811-1.811c0.237,0.141,0.5,0.242,0.772,0.313v2.569C83.524,65.776,82.645,65.397,81.904,64.836z M79.722,61.164
			h2.579c0.073,0.274,0.181,0.534,0.321,0.772l-1.819,1.82C80.24,63.014,79.859,62.128,79.722,61.164z"/>
		<path d="M10.426,60.377c0,0.38,0.03,0.752,0.079,1.119c0.551,4.389,4.289,7.785,8.825,7.785c4.662,0,8.48-3.584,8.867-8.145
			c0.021-0.252,0.039-0.504,0.039-0.761c0-4.919-3.985-8.905-8.906-8.905C14.413,51.473,10.426,55.459,10.426,60.377z
			 M24.859,59.621h-2.56c-0.071-0.279-0.183-0.541-0.323-0.783l1.817-1.817C24.355,57.766,24.726,58.651,24.859,59.621z
			 M23.792,63.762l-1.826-1.828c0.142-0.24,0.258-0.494,0.331-0.771h2.559C24.719,62.127,24.355,63.02,23.792,63.762z
			 M20.103,63.339c0.274-0.071,0.534-0.176,0.772-0.315l1.811,1.812c-0.741,0.561-1.619,0.938-2.583,1.07V63.339z M20.103,54.852
			c0.971,0.135,1.856,0.51,2.601,1.078l-1.813,1.813c-0.244-0.144-0.506-0.255-0.787-0.328V54.852z M14.871,57.02l1.817,1.817
			c-0.142,0.242-0.252,0.504-0.322,0.783h-2.56C13.937,58.651,14.309,57.766,14.871,57.02z M18.561,57.416
			c-0.281,0.073-0.543,0.185-0.787,0.328L15.96,55.93c0.745-0.566,1.631-0.941,2.602-1.076L18.561,57.416L18.561,57.416z
			 M15.977,64.836l1.81-1.811c0.238,0.141,0.5,0.242,0.773,0.313v2.569C17.596,65.776,16.718,65.397,15.977,64.836z M13.796,61.164
			h2.579c0.072,0.274,0.181,0.534,0.321,0.772l-1.819,1.82C14.314,63.014,13.932,62.128,13.796,61.164z"/>
		<path d="M0.043,55.688l1.013,5.479c0.229,1.24,1.312,2.143,2.573,2.143h5.115c-0.139-0.502-0.253-1.016-0.319-1.545
			c-0.064-0.5-0.096-0.955-0.096-1.386c0-6.067,4.937-11.003,11.002-11.003c6.067,0,11.004,4.936,11.004,11.003
			c0,0.315-0.021,0.626-0.047,0.938c-0.058,0.685-0.182,1.35-0.361,1.992h44.746c-0.14-0.502-0.253-1.015-0.32-1.543
			c-0.064-0.502-0.095-0.955-0.095-1.387c0-6.066,4.936-11.003,11.002-11.003s11.003,4.937,11.003,11.003
			c0,0.314-0.021,0.626-0.046,0.938c-0.059,0.686-0.183,1.351-0.362,1.994h1.298c0,0,2.212-7.111,1.434-10.342
			c-0.607-2.519-2.16-3.544-2.16-3.544s0.146-3.693-1.845-7.513c-0.422-0.811-3.704-5.277-8.645-9.73
			c-2.258-2.036-4.034-2.671-7.074-2.679c-8.61-0.023-28.404-0.065-33.08,0.011c-3.111,0.051-4.899,0.535-7.602,2.146
			c-0.268,0.159-0.407,0.467-0.329,0.768c0.078,0.301,0.35,0.511,0.661,0.511h0.176l-8.734,8.55c0,0-3.45,0.017-4.6,0.064
			c-5.716,0.236-15.996,1.08-22.229,5.831c-0.841,0.641-1.391,1.592-1.524,2.64c-0.174,1.363-0.2,2.871-0.2,2.871
			C0.385,53.428-0.165,54.559,0.043,55.688z M71.775,32.938h9.024c0.98,0,1.929,0.325,2.703,0.928c2.113,1.648,3.768,3.466,5,5.068
			c0.25,0.325,0.294,0.763,0.114,1.131c-0.178,0.369-0.549,0.605-0.959,0.611L71.776,40.9L71.775,32.938L71.775,32.938z
			 M66.968,32.938h0.612v8.021l-0.612,0.009V32.938z M34.514,41.423l8.669-8.486h19.589v8.088l-20.771,0.292
			c0.011-0.103,0.026-0.203,0.026-0.309c0-1.39-0.994-2.517-2.22-2.517c-1.228,0-2.221,1.127-2.221,2.517
			c0,0.127,0.017,0.249,0.032,0.371L34.514,41.423z"/>
	</g>
</g>
<g>
</g>
<g>
</g>
<g>
</g>
<g>
</g>
<g>
</g>
<g>
</g>
<g>
</g>
<g>
</g>
<g>
</g>
<g>
</g>
<g>
</g>
<g>
</g>
<g>
</g>
<g>
</g>
<g>
</g>
</svg>
